# Made in Blockbench 5.0.7
mtllib Block00.mtl

o top
v 0.5 0.5 0.5
v 0.5 0.5 -0.5
v -0.5 0.5 0.5
v -0.5 0.5 -0.5
vt 1 0
vt 1 1
vt 0 1
vt 0 0
vn 0 1 0
usemtl none
f 1/1/1 2/2/1 4/3/1 3/4/1
o bottom
v -0.5 -0.5000000000000001 0.5
v -0.5 -0.5000000000000001 -0.5
v 0.5 -0.49999999999999994 0.5
v 0.5 -0.49999999999999994 -0.5
vt 1 0
vt 1 1
vt 0 1
vt 0 0
vn 1.2246467991473532e-16 -1 0
usemtl none
f 5/5/2 6/6/2 8/7/2 7/8/2
o right
v -0.4999999999999999 -0.4999999999999999 0.5
v -0.4999999999999999 0.5000000000000001 0.4999999999999999
v -0.5000000000000001 -0.5000000000000001 -0.4999999999999999
v -0.5000000000000001 0.4999999999999999 -0.5
vt 1 0
vt 1 1
vt 0 1
vt 0 0
vn -1 1.2325951644078312e-32 2.2204460492503136e-16
usemtl none
f 9/9/3 10/10/3 12/11/3 11/12/3
o left
v 0.5000000000000001 -0.5000000000000001 -0.4999999999999999
v 0.5000000000000001 0.4999999999999999 -0.5
v 0.4999999999999999 -0.4999999999999999 0.5
v 0.4999999999999999 0.5000000000000001 0.4999999999999999
vt 1 0
vt 1 1
vt 0 1
vt 0 0
vn 1 1.2325951644078312e-32 2.2204460492503136e-16
usemtl none
f 13/13/4 14/14/4 16/15/4 15/16/4
o plane
v 0.5 -0.5 0.5000000000000001
v 0.5 0.5 0.4999999999999999
v -0.5 -0.5 0.5000000000000001
v -0.5 0.5 0.4999999999999999
vt 1 0
vt 1 1
vt 0 1
vt 0 0
vn 0 2.220446049250313e-16 1
usemtl none
f 17/17/5 18/18/5 20/19/5 19/20/5
o forward
v -0.5 -0.5 -0.4999999999999999
v -0.5 0.5 -0.5000000000000001
v 0.5 -0.5 -0.4999999999999999
v 0.5 0.5 -0.5000000000000001
vt 1 0
vt 1 1
vt 0 1
vt 0 0
vn 3.0616169978683836e-17 -2.220446049250313e-16 -1
usemtl none
f 21/21/6 22/22/6 24/23/6 23/24/6