# Made in Blockbench 5.0.7
mtllib 222.mtl

o bottom
v -0.5000000000000001 -0.5 -0.49999999999999994
v -0.49999999999999994 -0.5 0.5000000000000001
v 0.49999999999999994 -0.5 -0.5000000000000001
v 0.5000000000000001 -0.5 0.49999999999999994
vt 1 0
vt 1 1
vt 0 1
vt 0 0
vn 0 1 0
usemtl none
f 1/1/1 2/2/1 4/3/1 3/4/1
o wall
v 0.5 -0.5 0.5000000000000001
v 0.5 0.5 0.4999999999999999
v -0.5 -0.5 0.5000000000000001
v -0.5 0.5 0.4999999999999999
vt 0 1
vt 1 1
vt 1 0
vt 0 0
vn 0 -2.220446049250313e-16 -1
usemtl none
f 8/5/2 6/6/2 5/7/2 7/8/2
o wall
v -0.4999999999999999 -0.4999999999999999 0.5000000000000001
v -0.4999999999999999 0.5000000000000001 0.4999999999999999
v -0.5000000000000001 -0.5000000000000001 -0.4999999999999999
vt 1 1
vt 1 0
vt 0 0
vn 1 -4.930380657631324e-32 -2.220446049250313e-16
usemtl none
f 10/9/3 9/10/3 11/11/3
o wall
v 0.5000000000000001 -0.4999999999999999 0.5000000000000001
v 0.5000000000000001 0.5000000000000001 0.4999999999999999
v 0.4999999999999999 -0.5000000000000001 -0.4999999999999999
vt 1 0
vt 1 1
vt 0 0
vn -1 4.930380657631324e-32 2.220446049250313e-16
usemtl none
f 12/12/4 13/13/4 14/14/4
o top
v -0.5000000000000001 -0.5 -0.49999999999999994
v -0.49999999999999994 0.5 0.5000000000000001
v 0.49999999999999994 -0.5 -0.5000000000000001
v 0.5000000000000001 0.5 0.49999999999999994
vt 0 1
vt 1 1
vt 1 0
vt 0 0
vn 8.659560562354934e-17 -0.7071067811865476 0.7071067811865476
usemtl none
f 18/15/5 16/16/5 15/17/5 17/18/5