# Made in Blockbench 5.0.7
mtllib 333.mtl

o wall
v 0.5 -0.5 0.5000000000000001
v 0.5 0.5 0.4999999999999999
v -0.5 -0.5 0.5000000000000001
v -0.5 0.5 0.4999999999999999
vt 0 1
vt 1 1
vt 1 0
vt 0 0
vn 0 -2.220446049250313e-16 -1
usemtl none
f 4/1/1 2/2/1 1/3/1 3/4/1
o wall
v -0.5 -0.5 -0.49999999999999994
v -0.5 -3.697785493223493e-32 -0.5000000000000002
v 0.5 -0.5 -0.49999999999999983
v 0.5 -1.232595164407831e-32 -0.5
vt 0 1
vt 1 1
vt 1 0
vt 0 0
vn -1.2246467991473532e-16 4.440892098500626e-16 1
usemtl none
f 8/5/2 6/6/2 5/7/2 7/8/2
o wall
v -0.4999999999999999 -0.4999999999999999 0.5000000000000001
v -0.4999999999999999 0.5000000000000001 0.4999999999999999
v -0.5000000000000001 -0.5000000000000001 -0.4999999999999999
v -0.5000000000000001 -1.249000902703301e-16 -0.5
vt 0 1
vt 1 1
vt 1 0
vt 0 0
vn 1 -4.930380657631324e-32 -2.220446049250313e-16
usemtl none
f 12/9/3 10/10/3 9/11/3 11/12/3
o wall
v 0.49727378828966656 -0.5000000000000001 -0.5000594861511338
v 0.49727378828966656 -8.327993542581377e-17 -0.5000594861511338
v 0.49727378828966634 -0.4999999999999999 0.4999405138488662
v 0.49727378828966634 0.5000000000000001 0.49994051384886595
vt 0 1
vt 1 1
vt 1 0
vt 0 0
vn -1 -4.930380657631324e-32 -2.220446049250313e-16
usemtl none
f 16/13/4 14/14/4 13/15/4 15/16/4
o bottom
v 0.5 -0.49999999999999994 -0.5
v 0.5 -0.5000000000000001 0.5
v -0.5 -0.49999999999999994 -0.5
v -0.5 -0.5000000000000001 0.5
vt 0 1
vt 1 1
vt 1 0
vt 0 0
vn 0 1 1.2246467991473532e-16
usemtl none
f 20/17/5 18/18/5 17/19/5 19/20/5
o top
v -0.5000000000000001 0 -0.49999999999999994
v -0.49999999999999994 0.5 0.5000000000000001
v 0.49999999999999994 0 -0.5000000000000001
v 0.5000000000000001 0.5 0.49999999999999994
vt 0 1
vt 1 1
vt 1 0
vt 0 0
vn 5.4767869826420275e-17 -0.8944271909999161 0.44721359549995804
usemtl none
f 24/21/6 22/22/6 21/23/6 23/24/6